<?xml version="1.0" standalone="no"?>
<!DOCTYPE svg PUBLIC "-//W3C//DTD SVG 20010904//EN"
 "http://www.w3.org/TR/2001/REC-SVG-20010904/DTD/svg10.dtd">
<svg version="1.0" xmlns="http://www.w3.org/2000/svg"
 width="700.000000pt" height="700.000000pt" viewBox="0 0 700.000000 700.000000"
 preserveAspectRatio="xMidYMid meet">
<metadata>
Created by potrace 1.14, written by Peter Selinger 2001-2017
</metadata>
<g transform="translate(0.000000,700.000000) scale(0.100000,-0.100000)"
fill="#000000" stroke="none">
<path d="M2204 5777 c-31 -33 -94 -87 -103 -87 -5 0 -13 -9 -16 -20 -4 -11
-11 -18 -16 -15 -5 4 -9 3 -10 -2 -3 -29 -9 -48 -18 -51 -6 -2 -11 -8 -11 -13
0 -6 -12 -22 -27 -36 -16 -14 -27 -29 -26 -34 2 -5 -1 -9 -5 -9 -5 0 -7 -20
-6 -45 2 -41 -5 -57 -28 -61 -5 -1 -9 -2 -10 -4 -7 -4 -47 -11 -93 -15 -86 -6
-109 -15 -154 -58 -24 -23 -63 -60 -87 -82 -24 -22 -67 -62 -96 -90 -29 -27
-66 -60 -82 -72 -16 -13 -26 -23 -22 -23 4 0 -15 -19 -42 -42 -87 -77 -122
-128 -122 -175 0 -48 -34 -149 -53 -156 -7 -2 -23 0 -37 6 -44 18 -69 18 -102
1 -34 -18 -124 -104 -168 -161 -14 -18 -31 -33 -39 -33 -8 0 -12 -2 -9 -5 3
-3 -10 -21 -28 -41 -33 -34 -46 -84 -23 -84 5 0 7 -4 4 -10 -3 -5 30 -47 74
-91 45 -45 81 -83 81 -85 0 -1 45 -49 100 -104 55 -56 100 -106 100 -112 0 -5
5 -6 10 -3 6 3 10 3 10 -2 0 -15 46 -29 73 -22 28 7 31 10 168 142 l85 82 1
68 c0 47 6 75 19 94 32 50 37 52 117 48 79 -4 93 2 140 53 11 12 25 22 31 22
6 0 32 -22 58 -48 103 -104 150 -162 131 -162 -5 0 -30 -20 -57 -45 -27 -25
-53 -45 -58 -45 -5 0 -6 -4 -3 -10 3 -5 2 -10 -2 -10 -5 0 -25 -15 -44 -32
-66 -62 -89 -75 -114 -70 -14 2 -25 8 -25 12 0 8 -51 34 -62 32 -5 -1 -8 2 -8
7 0 12 -46 20 -60 11 -13 -8 29 -60 49 -60 6 0 11 -4 11 -10 0 -5 7 -10 15
-10 8 0 15 -5 15 -11 0 -5 4 -8 9 -5 5 3 11 -3 14 -14 5 -19 -37 -64 -120
-130 -17 -13 -29 -28 -27 -32 3 -4 -1 -8 -8 -8 -7 0 -35 -21 -63 -45 -48 -44
-97 -86 -122 -105 -16 -13 -50 -13 -74 1 -11 6 -28 12 -37 14 -9 3 -37 10 -62
16 -25 6 -52 13 -60 14 -8 1 -23 5 -32 9 -9 4 -22 5 -28 1 -5 -3 -10 -2 -10 2
0 14 -88 34 -117 27 -43 -11 -72 -55 -88 -131 -2 -10 -8 -29 -13 -43 -5 -14
-11 -29 -12 -35 -1 -5 -7 -21 -12 -35 -5 -14 -14 -46 -20 -72 -6 -27 -15 -48
-20 -48 -5 0 -7 -4 -4 -9 3 -4 1 -23 -5 -42 -5 -19 -12 -41 -14 -49 -2 -8 -10
-34 -18 -57 -9 -22 -13 -44 -10 -47 4 -3 1 -6 -5 -6 -6 0 -10 -8 -10 -17 0
-10 -5 -31 -12 -48 -7 -16 -12 -35 -11 -42 1 -6 -3 -14 -8 -17 -28 -18 25
-129 57 -118 7 2 12 -1 12 -8 0 -6 6 -10 12 -9 7 2 33 -4 58 -11 25 -8 47 -14
50 -15 3 -1 25 -7 50 -15 53 -16 57 -17 90 -23 14 -3 25 -6 25 -7 0 -1 7 -3
15 -5 8 -2 57 -17 108 -34 52 -17 99 -31 106 -31 7 0 21 -8 30 -19 16 -18 16
-19 -16 -24 -18 -2 -67 -12 -108 -20 -72 -15 -141 -27 -167 -29 -7 -1 -13 -5
-13 -10 0 -4 -6 -8 -12 -8 -7 0 -23 -15 -35 -32 -20 -28 -22 -41 -18 -112 3
-45 7 -94 9 -111 12 -79 19 -143 20 -172 1 -18 4 -33 7 -33 3 0 4 -20 3 -45
-1 -26 2 -45 8 -45 6 0 6 -6 -2 -15 -7 -8 -8 -15 -3 -15 5 0 10 -12 10 -27 1
-38 11 -138 18 -193 4 -25 8 -61 10 -80 2 -19 6 -57 9 -85 10 -72 16 -132 20
-200 3 -33 6 -61 7 -62 1 -2 2 -6 3 -10 11 -61 71 -112 126 -108 14 1 57 6 95
10 39 4 90 9 115 10 25 2 81 6 125 10 44 4 99 8 122 9 24 1 43 3 43 6 0 3 19
6 43 6 23 1 69 4 102 8 33 3 87 8 120 11 33 2 78 7 100 10 22 2 65 7 95 10 30
3 71 8 90 10 19 2 64 7 100 10 36 2 85 7 110 11 25 3 63 7 85 9 22 2 74 6 115
10 117 12 181 7 188 -15 2 -5 10 -10 18 -10 14 0 23 -4 82 -34 17 -9 32 -14
32 -11 0 4 7 -1 16 -9 8 -9 20 -14 25 -11 5 4 9 1 9 -5 0 -6 5 -8 10 -5 6 3
10 1 10 -5 0 -6 5 -8 10 -5 6 3 10 1 10 -5 0 -6 4 -9 9 -5 5 3 12 1 16 -5 4
-6 11 -8 16 -5 5 4 9 3 9 -2 0 -9 91 -49 103 -45 4 1 7 -3 7 -9 0 -5 5 -7 10
-4 6 3 10 1 10 -4 0 -6 4 -11 9 -11 5 0 26 -7 47 -16 22 -9 39 -15 40 -13 0 2
8 -2 17 -10 10 -7 17 -11 17 -7 0 3 9 -2 20 -12 12 -9 23 -16 25 -14 3 1 32
-11 65 -28 34 -17 65 -28 70 -25 6 4 10 2 10 -3 0 -4 24 -19 53 -32 28 -13 81
-37 117 -54 36 -17 69 -29 73 -28 4 1 10 -4 13 -12 4 -9 28 -14 89 -15 77 -2
84 0 99 21 9 13 19 21 22 19 6 -3 57 36 95 72 11 9 19 14 19 10 0 -5 6 -1 13
7 7 8 46 40 88 71 41 31 82 64 91 73 9 9 19 16 22 16 7 0 42 28 67 54 11 11
19 16 19 11 0 -4 8 1 18 11 9 11 35 33 57 50 22 16 45 36 52 44 7 8 13 11 13
5 0 -6 3 -6 8 0 4 6 41 37 82 68 41 31 82 63 90 70 8 7 33 27 55 43 22 16 42
32 43 37 2 4 8 7 13 7 5 0 26 15 45 33 20 17 44 37 53 42 9 6 33 23 53 38 20
15 44 29 54 32 11 2 38 8 61 13 23 5 44 7 48 4 3 -3 5 -1 5 4 0 5 8 10 18 11
21 1 97 11 97 13 0 2 25 7 70 15 83 15 96 18 101 27 3 5 12 4 20 -3 8 -6 14
-7 14 -2 0 5 12 10 28 12 42 4 67 8 67 10 0 4 72 18 135 27 25 3 50 9 55 13 6
3 19 6 30 6 11 0 25 3 30 7 6 3 18 4 28 3 9 -2 17 0 17 4 0 4 11 8 25 9 14 1
89 16 167 33 78 17 151 32 162 33 12 1 26 5 32 9 9 5 33 11 89 22 44 8 65 14
87 26 25 13 53 39 43 39 -4 0 0 6 7 14 9 9 13 33 12 72 -3 74 -10 123 -17 130
-3 4 -2 17 3 30 5 13 6 24 2 24 -4 0 -7 12 -8 28 0 15 -4 63 -8 107 -9 105
-16 198 -20 260 -2 28 -5 50 -6 50 -1 0 -4 25 -6 55 -2 30 -6 84 -9 120 -3 36
-7 96 -10 133 -3 38 -9 77 -15 86 -5 10 -7 21 -4 23 3 3 -11 22 -30 41 l-35
36 -83 -3 c-46 -2 -99 -7 -119 -11 -35 -6 -37 -5 -41 24 -5 33 9 64 32 69 8 2
20 10 27 18 6 9 15 15 20 15 10 -1 112 50 130 64 7 6 18 15 25 21 8 6 19 9 26
6 6 -2 12 1 12 7 0 6 5 11 10 11 27 0 97 76 96 102 -2 32 -26 88 -39 88 -6 0
-7 3 -4 6 4 4 -2 19 -13 34 -11 16 -20 33 -20 39 0 6 -4 11 -10 11 -5 0 -10 6
-10 14 0 8 -7 21 -15 30 -9 8 -16 19 -17 23 0 4 -6 17 -13 28 -41 70 -95 169
-95 176 0 5 -4 9 -10 9 -5 0 -10 7 -10 15 0 8 -5 15 -11 15 -5 0 -7 5 -4 10 3
6 1 10 -4 10 -6 0 -11 9 -11 19 0 10 -7 21 -15 25 -8 3 -15 12 -15 20 0 7 -12
27 -27 43 -44 45 -79 38 -203 -36 -36 -22 -84 -49 -107 -61 -24 -12 -43 -26
-43 -31 0 -5 -3 -8 -7 -8 -5 1 -10 0 -13 -1 -19 -7 -40 -7 -40 1 0 5 -5 9 -11
9 -10 0 -31 15 -87 61 -7 5 -16 8 -21 4 -5 -3 -11 -2 -13 2 -4 11 -78 65 -78
58 0 -3 -10 3 -22 15 -12 11 -28 20 -35 20 -7 0 -13 5 -13 10 0 6 -7 10 -15
10 -8 0 -15 5 -15 10 0 6 -6 10 -13 10 -8 0 -22 9 -32 20 -10 11 -23 20 -30
20 -6 0 -20 8 -31 18 -10 10 -27 21 -36 25 -22 8 -14 58 14 92 19 23 57 85 52
85 -2 0 0 6 6 13 6 6 34 47 61 90 27 42 55 77 62 77 28 -1 98 -41 134 -77 43
-43 123 -138 123 -146 0 -3 14 -26 30 -50 17 -25 30 -49 30 -55 0 -6 3 -12 8
-14 8 -4 68 -121 64 -126 -5 -5 48 -52 58 -52 19 0 42 34 37 57 -2 13 0 26 5
29 4 3 6 10 2 15 -6 10 -15 50 -19 89 -2 14 -4 25 -5 25 -1 0 -4 11 -6 25 -3
14 -10 43 -16 65 -14 49 -13 46 -21 68 -16 42 -20 53 -22 63 -6 26 -108 221
-126 240 -10 11 -19 26 -19 32 0 7 -4 12 -10 12 -5 0 -10 4 -10 10 0 10 -26
44 -62 82 -10 10 -18 20 -18 22 0 7 -99 103 -103 100 -2 -2 -19 12 -39 30 -20
19 -39 32 -42 29 -3 -4 -6 -1 -6 6 0 7 -4 10 -9 7 -4 -3 -16 3 -26 14 -10 11
-24 20 -32 20 -7 0 -13 5 -13 10 0 6 -7 10 -15 10 -8 0 -15 4 -15 9 0 12 -46
23 -108 26 -29 1 -65 8 -80 16 -43 22 -88 72 -90 99 -1 29 -22 70 -34 70 -5 0
-18 8 -29 18 -10 11 -32 25 -47 33 -15 8 -31 18 -37 22 -5 4 -45 30 -88 56
-54 34 -85 47 -100 44 -23 -6 -67 -41 -67 -54 0 -5 -13 -28 -30 -52 -16 -25
-30 -50 -30 -56 0 -6 -3 -11 -7 -11 -5 0 -19 -23 -32 -50 -14 -28 -29 -50 -33
-50 -4 0 -8 -9 -8 -19 0 -11 -7 -26 -15 -34 -8 -8 -16 -21 -17 -28 -2 -8 -8
-19 -14 -26 -23 -25 11 -112 44 -113 6 0 12 -4 12 -10 0 -5 4 -10 9 -10 11 0
110 -59 129 -77 7 -7 20 -13 28 -13 8 0 17 -7 20 -15 4 -8 10 -12 15 -9 5 3 9
1 9 -4 0 -20 65 -29 100 -15 8 4 18 7 23 8 4 2 8 3 10 5 8 6 47 9 74 4 32 -6
87 -50 79 -63 -3 -4 -1 -13 4 -21 5 -8 5 -21 0 -29 -4 -9 -9 -32 -11 -51 -2
-19 -16 -54 -32 -77 -15 -24 -25 -43 -21 -43 4 0 -3 -9 -16 -20 -13 -11 -20
-20 -16 -20 3 0 -6 -18 -20 -40 -15 -22 -30 -40 -34 -40 -4 0 -27 14 -51 32
-24 17 -44 30 -44 28 0 -3 -21 10 -47 28 -26 18 -51 32 -57 32 -6 0 -11 4 -11
9 0 5 -13 14 -30 21 -16 7 -30 16 -30 21 0 5 -5 9 -10 9 -12 0 -73 41 -78 53
-2 4 -8 7 -13 7 -5 0 -43 23 -85 50 -41 28 -80 50 -85 50 -5 0 -9 3 -9 8 0 7
-30 25 -62 38 -10 3 -18 10 -18 15 0 5 -7 9 -15 9 -8 0 -15 4 -15 9 0 5 -8 11
-17 15 -23 7 -56 28 -65 41 -4 6 -8 6 -8 2 0 -15 -25 18 -50 68 -32 62 -132
165 -190 196 -25 13 -47 23 -50 24 -3 0 -10 3 -16 7 -6 4 -21 9 -35 12 -13 3
-35 8 -49 11 -42 11 -149 13 -193 3 -23 -5 -52 -10 -63 -12 -33 -6 -114 -44
-159 -74 -45 -31 -121 -110 -118 -123 2 -5 -2 -9 -7 -9 -6 0 -10 -7 -10 -15 0
-8 -3 -15 -7 -15 -5 0 -17 -18 -27 -40 -11 -23 -35 -50 -55 -62 -20 -12 -48
-34 -63 -49 -14 -15 -29 -25 -31 -22 -3 2 -10 -5 -17 -16 -6 -12 -15 -21 -19
-21 -5 0 -25 -15 -44 -32 -43 -42 -107 -97 -112 -98 -6 -1 -48 -38 -96 -82
-22 -20 -43 -38 -47 -40 -10 -4 -38 -27 -88 -74 -24 -23 -45 -40 -46 -38 -2 1
-34 -26 -71 -60 l-68 -63 -39 38 c-22 22 -38 39 -35 39 2 0 -21 25 -50 56 -58
62 -71 89 -47 99 8 3 12 8 8 12 -3 3 2 12 12 19 14 9 19 27 21 66 2 74 3 78
14 78 6 0 7 3 4 6 -10 10 30 61 53 67 11 3 20 1 20 -4 0 -6 8 -5 20 1 11 6 20
7 20 2 0 -5 23 -8 51 -8 56 1 45 -6 192 129 22 21 58 52 79 69 20 18 35 35 32
39 -2 4 0 10 5 13 26 16 -10 68 -155 221 -29 30 -49 56 -46 59 3 4 -2 6 -11 6
-10 0 -17 4 -17 8 0 4 -44 53 -97 108 -98 101 -132 120 -159 91z m602 -1174
c-9 -9 38 -47 72 -59 l35 -12 -24 -12 c-42 -22 -58 -46 -62 -92 -2 -30 -25
-20 -43 17 -9 19 -20 32 -25 29 -5 -3 -9 -1 -9 5 0 5 -13 12 -30 16 -39 8 -38
16 4 39 23 12 37 30 46 57 11 31 16 37 27 27 7 -6 11 -13 9 -15z m1678 -169
c3 -8 10 -12 16 -9 5 3 10 1 10 -4 0 -6 6 -11 14 -11 29 0 27 -21 -3 -52 -17
-18 -31 -38 -31 -45 0 -22 -20 -15 -31 11 -7 15 -23 26 -43 30 l-31 7 26 23
c15 13 32 33 38 45 14 25 27 27 35 5z m571 -354 c3 -6 -1 -7 -9 -4 -18 7 -21
14 -7 14 6 0 13 -4 16 -10z"/>
</g>
</svg>
